<svg id="visual" viewBox="0 0 960 540" width="960" height="540" xmlns="http://www.w3.org/2000/svg" xmlns:xlink="http://www.w3.org/1999/xlink" version="1.1"><path d="M830 540L829 527.2C828 514.3 826 488.7 830.5 463C835 437.3 846 411.7 852.3 386C858.7 360.3 860.3 334.7 860.3 308.8C860.3 283 858.7 257 852.8 231.2C847 205.3 837 179.7 834.2 154C831.3 128.3 835.7 102.7 840.5 77C845.3 51.3 850.7 25.7 853.3 12.8L856 0L960 0L960 12.8C960 25.7 960 51.3 960 77C960 102.7 960 128.3 960 154C960 179.7 960 205.3 960 231.2C960 257 960 283 960 308.8C960 334.7 960 360.3 960 386C960 411.7 960 437.3 960 463C960 488.7 960 514.3 960 527.2L960 540Z" fill="#c38ed9"></path><path d="M883 540L880.3 527.2C877.7 514.3 872.3 488.7 868.5 463C864.7 437.3 862.3 411.7 860 386C857.7 360.3 855.3 334.7 855.7 308.8C856 283 859 257 863.7 231.2C868.3 205.3 874.7 179.7 880 154C885.3 128.3 889.7 102.7 889.8 77C890 51.3 886 25.7 884 12.8L882 0L960 0L960 12.8C960 25.7 960 51.3 960 77C960 102.7 960 128.3 960 154C960 179.7 960 205.3 960 231.2C960 257 960 283 960 308.8C960 334.7 960 360.3 960 386C960 411.7 960 437.3 960 463C960 488.7 960 514.3 960 527.2L960 540Z" fill="#ad6cd4"></path><path d="M898 540L899.2 527.2C900.3 514.3 902.7 488.7 904.8 463C907 437.3 909 411.7 912.3 386C915.7 360.3 920.3 334.7 923.8 308.8C927.3 283 929.7 257 925.3 231.2C921 205.3 910 179.7 903.7 154C897.3 128.3 895.7 102.7 899.3 77C903 51.3 912 25.7 916.5 12.8L921 0L960 0L960 12.8C960 25.7 960 51.3 960 77C960 102.7 960 128.3 960 154C960 179.7 960 205.3 960 231.2C960 257 960 283 960 308.8C960 334.7 960 360.3 960 386C960 411.7 960 437.3 960 463C960 488.7 960 514.3 960 527.2L960 540Z" fill="#924bd0"></path></svg>