<svg id="visual" viewBox="0 0 960 540" width="960" height="640" xmlns="http://www.w3.org/2000/svg" xmlns:xlink="http://www.w3.org/1999/xlink" version="1.1"><path d="M132 0L133 12.8C134 25.7 136 51.3 131.5 77C127 102.7 116 128.3 109.7 154C103.3 179.7 101.7 205.3 101.7 231.2C101.7 257 103.3 283 109.2 308.8C115 334.7 125 360.3 127.8 386C130.7 411.7 126.3 437.3 121.5 463C116.7 488.7 111.3 514.3 108.7 527.2L106 540L0 540L0 527.2C0 514.3 0 488.7 0 463C0 437.3 0 411.7 0 386C0 360.3 0 334.7 0 308.8C0 283 0 257 0 231.2C0 205.3 0 179.7 0 154C0 128.3 0 102.7 0 77C0 51.3 0 25.7 0 12.8L0 0Z" fill="#c38ed9"></path><path d="M79 0L81.7 12.8C84.3 25.7 89.7 51.3 93.5 77C97.3 102.7 99.7 128.3 102 154C104.3 179.7 106.7 205.3 106.3 231.2C106 257 103 283 98.3 308.8C93.7 334.7 87.3 360.3 82 386C76.7 411.7 72.3 437.3 72.2 463C72 488.7 76 514.3 78 527.2L80 540L0 540L0 527.2C0 514.3 0 488.7 0 463C0 437.3 0 411.7 0 386C0 360.3 0 334.7 0 308.8C0 283 0 257 0 231.2C0 205.3 0 179.7 0 154C0 128.3 0 102.7 0 77C0 51.3 0 25.7 0 12.8L0 0Z" fill="#ad6cd4"></path><path d="M64 0L62.8 12.8C61.7 25.7 59.3 51.3 57.2 77C55 102.7 53 128.3 49.7 154C46.3 179.7 41.7 205.3 38.2 231.2C34.7 257 32.3 283 36.7 308.8C41 334.7 52 360.3 58.3 386C64.7 411.7 66.3 437.3 62.7 463C59 488.7 50 514.3 45.5 527.2L41 540L0 540L0 527.2C0 514.3 0 488.7 0 463C0 437.3 0 411.7 0 386C0 360.3 0 334.7 0 308.8C0 283 0 257 0 231.2C0 205.3 0 179.7 0 154C0 128.3 0 102.7 0 77C0 51.3 0 25.7 0 12.8L0 0Z" fill="#924bd0"></path></svg>