<?xml version="1.0" encoding="iso-8859-1"?>
<!-- Generator: Adobe Illustrator 19.0.0, SVG Export Plug-In . SVG Version: 6.00 Build 0)  -->
<svg version="1.1" id="Capa_1" xmlns="http://www.w3.org/2000/svg" xmlns:xlink="http://www.w3.org/1999/xlink" x="0px" y="0px"
	 viewBox="0 0 512 512" style="enable-background:new 0 0 512 512;" xml:space="preserve">
<path style="fill:#A06047;" d="M256,0C114.61,0,0,114.61,0,256s114.61,256,256,256s256-114.61,256-256S397.39,0,256,0z M256,348.57
	c-51.122,0-92.57-41.448-92.57-92.57s41.449-92.57,92.57-92.57s92.57,41.449,92.57,92.57S307.122,348.57,256,348.57z"/>
<path style="fill:#824730;" d="M256,0c-6.189,0-12.336,0.216-18.411,0.658C370.384,10.095,475.167,120.809,475.167,256
	S370.384,501.905,237.589,511.342C243.664,511.784,249.811,512,256,512c141.39,0,256-114.61,256-256S397.39,0,256,0z"/>
<path style="fill:#00DDC2;" d="M256,0C114.61,0,0,114.61,0,256c0,68.115,26.594,130.01,69.975,175.868
	c20.909-4.842,25.175-20.827,53.311-20.827c33.183,0,33.183,22.205,66.357,22.205s33.173-22.205,66.346-22.205
	c33.184,0,33.184,22.205,66.346,22.205c33.184,0,33.184-22.205,66.357-22.205c28.146,0,32.412,15.985,53.332,20.827
	C485.406,386.01,512,324.115,512,256C512,114.61,397.39,0,256,0z M256,348.57c-51.122,0-92.57-41.448-92.57-92.57
	s41.449-92.57,92.57-92.57s92.57,41.449,92.57,92.57S307.122,348.57,256,348.57z"/>
<path style="fill:#00BCA1;" d="M256,0c-6.189,0-12.336,0.216-18.411,0.658C370.384,10.095,475.167,120.809,475.167,256
	c0,61.844-21.927,118.558-58.431,162.803c7.782,4.79,14.186,10.496,25.288,13.066C485.406,386.01,512,324.115,512,256
	C512,114.61,397.39,0,256,0z"/>
<g>
	<circle style="fill:#FFE269;" cx="348.57" cy="126.16" r="20.21"/>
	<circle style="fill:#FFE269;" cx="435.68" cy="233.47" r="20.21"/>
	<circle style="fill:#FFE269;" cx="84.68" cy="227.07" r="20.21"/>
	<circle style="fill:#FFE269;" cx="128.58" cy="343.13" r="20.21"/>
	<circle style="fill:#FFE269;" cx="388.99" cy="348.19" r="20.21"/>
	<circle style="fill:#FFE269;" cx="189.86" cy="126.16" r="20.21"/>
</g>
<g>
	<path style="fill:#F7D443;" d="M368.781,126.155c0,11.164-9.046,20.21-20.21,20.21c-10.65,0-19.367-8.224-20.149-18.679
		c3.639,3.557,8.625,5.746,14.114,5.746c11.164,0,20.21-9.046,20.21-20.21c0-0.514-0.021-1.028-0.062-1.532
		C366.447,115.361,368.781,120.491,368.781,126.155z"/>
	<path style="fill:#F7D443;" d="M455.882,233.467c0,11.164-9.046,20.21-20.21,20.21c-10.64,0-19.357-8.224-20.138-18.679
		c3.629,3.557,8.604,5.746,14.104,5.746c11.164,0,20.21-9.046,20.21-20.21c0-0.514-0.021-1.028-0.062-1.532
		C453.548,222.673,455.882,227.802,455.882,233.467z"/>
	<path style="fill:#F7D443;" d="M104.886,227.072c0,11.154-9.046,20.2-20.21,20.2c-10.64,0-19.367-8.224-20.149-18.668
		c3.639,3.557,8.615,5.746,14.114,5.746c11.164,0,20.21-9.046,20.21-20.21c0-0.514-0.021-1.028-0.062-1.532
		C102.552,216.279,104.886,221.408,104.886,227.072z"/>
	<path style="fill:#F7D443;" d="M148.781,343.132c0,11.154-9.046,20.2-20.2,20.2c-10.65,0-19.367-8.224-20.149-18.668
		c3.639,3.557,8.615,5.746,14.114,5.746c11.154,0,20.2-9.046,20.2-20.21c0-0.514-0.021-1.028-0.062-1.532
		C146.447,332.338,148.781,337.468,148.781,343.132z"/>
	<path style="fill:#F7D443;" d="M409.191,348.19c0,11.164-9.046,20.21-20.2,20.21c-10.65,0-19.367-8.224-20.149-18.679
		c3.639,3.557,8.615,5.746,14.114,5.746c11.154,0,20.2-9.046,20.2-20.21c0-0.514-0.021-1.028-0.062-1.532
		C406.857,337.396,409.191,342.526,409.191,348.19z"/>
	<path style="fill:#F7D443;" d="M210.059,126.155c0,11.164-9.046,20.21-20.2,20.21c-10.65,0-19.367-8.224-20.148-18.679
		c3.629,3.557,8.614,5.746,14.114,5.746c11.154,0,20.2-9.046,20.2-20.21c0-0.514-0.021-1.028-0.062-1.532
		C207.726,115.361,210.059,120.491,210.059,126.155z"/>
</g>
<path style="fill:#E84661;" d="M254.138,125.398c-1.701,0-3.412-0.56-4.839-1.712c-3.313-2.675-3.83-7.53-1.154-10.843l9.21-11.404
	c2.675-3.311,7.528-3.83,10.842-1.154c3.313,2.675,3.83,7.53,1.154,10.843l-9.21,11.404
	C258.617,124.417,256.388,125.398,254.138,125.398z"/>
<g>
	<path style="fill:#F4A6C2;" d="M375.896,194.46c-0.619,0-1.248-0.075-1.875-0.232l-14.221-3.554
		c-4.131-1.033-6.643-5.218-5.611-9.349c1.033-4.132,5.225-6.638,9.349-5.611l14.221,3.554c4.131,1.033,6.643,5.218,5.611,9.349
		C382.495,192.121,379.351,194.46,375.896,194.46z"/>
	<path style="fill:#F4A6C2;" d="M135.663,194.46c-0.619,0-1.248-0.075-1.875-0.232l-14.221-3.554
		c-4.131-1.033-6.643-5.218-5.611-9.349c1.033-4.132,5.225-6.638,9.349-5.611l14.221,3.554c4.131,1.033,6.643,5.218,5.611,9.349
		C142.262,192.121,139.118,194.46,135.663,194.46z"/>
</g>
<path style="fill:#F97A41;" d="M130.721,142.643c-3.288,0-6.333-2.119-7.361-5.423l-4.353-13.997
	c-1.264-4.066,1.007-8.387,5.073-9.651c4.072-1.266,8.388,1.007,9.652,5.073l4.353,13.997c1.264,4.066-1.007,8.387-5.073,9.651
	C132.25,142.53,131.479,142.643,130.721,142.643z"/>
<path style="fill:#F4A6C2;" d="M210.162,83.443c-0.711,0-1.434-0.099-2.15-0.307l-14.08-4.08c-4.09-1.185-6.444-5.462-5.258-9.551
	c1.185-4.09,5.465-6.443,9.551-5.259l14.08,4.08c4.09,1.185,6.444,5.462,5.258,9.551C216.586,81.25,213.505,83.443,210.162,83.443z"
	/>
<g>
	<path style="fill:#E84661;" d="M84.681,301.844c-0.711,0-1.434-0.099-2.15-0.307l-14.079-4.08c-4.09-1.186-6.444-5.462-5.258-9.552
		c1.185-4.089,5.466-6.444,9.551-5.259l14.079,4.08c4.09,1.186,6.444,5.462,5.258,9.552
		C91.105,299.651,88.024,301.844,84.681,301.844z"/>
	<path style="fill:#E84661;" d="M406.134,172.809c-1.075,0-2.167-0.226-3.209-0.704c-3.87-1.775-5.569-6.352-3.794-10.222
		l6.112-13.324c1.776-3.87,6.35-5.57,10.223-3.793c3.87,1.775,5.569,6.352,3.794,10.222l-6.112,13.324
		C411.85,171.14,409.056,172.809,406.134,172.809z"/>
</g>
<path style="fill:#F4A6C2;" d="M388.983,299.804c-1.075,0-2.167-0.226-3.209-0.704c-3.87-1.775-5.569-6.352-3.794-10.222
	l6.112-13.324c1.776-3.87,6.35-5.569,10.223-3.793c3.87,1.775,5.569,6.352,3.794,10.222l-6.112,13.324
	C394.698,298.135,391.904,299.804,388.983,299.804z"/>
<path style="fill:#E84661;" d="M321.704,379.444c-2.924,0-5.721-1.672-7.016-4.505c-1.771-3.873-0.067-8.447,3.805-10.218
	l13.331-6.096c3.874-1.77,8.448-0.067,10.218,3.805c1.771,3.873,0.067,8.447-3.805,10.218l-13.331,6.096
	C323.866,379.219,322.776,379.444,321.704,379.444z"/>
<path style="fill:#F4A6C2;" d="M122.792,293.21c-1.271,0-2.56-0.315-3.749-0.978c-3.718-2.074-5.052-6.77-2.978-10.489l7.141-12.802
	c2.073-3.718,6.771-5.054,10.489-2.978c3.718,2.074,5.052,6.77,2.978,10.489l-7.141,12.802
	C128.122,291.784,125.497,293.21,122.792,293.21z"/>
<g>
	<path style="fill:#F97A41;" d="M190.256,388.408c-2.324,0-4.62-1.046-6.138-3.036c-2.581-3.387-1.928-8.224,1.458-10.806
		l11.658-8.887c3.389-2.582,8.225-1.928,10.806,1.458c2.581,3.387,1.928,8.224-1.458,10.806l-11.658,8.887
		C193.528,387.894,191.885,388.408,190.256,388.408z"/>
	<path style="fill:#F97A41;" d="M291.419,84.388c-1.897,0-3.798-0.696-5.288-2.1l-10.666-10.055
		c-3.098-2.921-3.243-7.8-0.321-10.899c2.919-3.1,7.8-3.242,10.898-0.322l10.666,10.055c3.098,2.921,3.243,7.8,0.321,10.899
		C295.514,83.576,293.468,84.388,291.419,84.388z"/>
</g>
<g>
</g>
<g>
</g>
<g>
</g>
<g>
</g>
<g>
</g>
<g>
</g>
<g>
</g>
<g>
</g>
<g>
</g>
<g>
</g>
<g>
</g>
<g>
</g>
<g>
</g>
<g>
</g>
<g>
</g>
</svg>
