<svg id="visual" viewBox="0 0 960 540" width="960" height="540" xmlns="http://www.w3.org/2000/svg" xmlns:xlink="http://www.w3.org/1999/xlink" version="1.1"><g><g transform="translate(875 410)"><path d="M86.6 -102.1C107.8 -85.5 117.4 -53.9 113.7 -27.1C110.1 -0.2 93.2 21.9 75.6 35.5C58.1 49.2 39.8 54.3 18.7 70.1C-2.4 85.9 -26.5 112.4 -47.5 112.5C-68.6 112.7 -86.6 86.6 -87.8 61.7C-89 36.9 -73.3 13.4 -68.5 -11.7C-63.7 -36.8 -69.7 -63.5 -60.1 -82.2C-50.4 -100.9 -25.2 -111.6 3.8 -116C32.7 -120.5 65.5 -118.8 86.6 -102.1Z" fill="#AA57F7"></path></g><g transform="translate(40 122)"><path d="M68.3 -80.9C79.7 -71.9 73.9 -42 67 -20.7C60.2 0.5 52.3 13.1 48 34.7C43.8 56.3 43.3 86.9 28.2 103.8C13.1 120.7 -16.5 123.9 -38.8 113C-61.1 102.1 -76 77.3 -84.9 53.2C-93.8 29.1 -96.7 5.8 -88.3 -11.1C-80 -28 -60.5 -38.4 -43.9 -46.5C-27.3 -54.5 -13.7 -60.2 7.4 -69.1C28.5 -77.9 57 -89.9 68.3 -80.9Z" fill="#AA57F7"></path></g></g></svg>