<svg id="Layer_1" enable-background="new 0 0 512.002 512.002" height="512" viewBox="0 0 512.002 512.002" width="512" xmlns="http://www.w3.org/2000/svg"><g><g clip-rule="evenodd" fill-rule="evenodd"><path d="m442.972 176.001h-369.908-39.945-23.119l40.999 80-40.999 80h18.895 40.135 369.908 39.945 23.119l-40.999-80 40.999-80h-18.896z" fill="#cbe558"/><path d="m79.773 149.236c-4.871 8.436-7.015 17.698-6.709 26.765h369.908c-.774-6.587-2.87-13.127-6.397-19.235-10.354-17.934-30.095-27.067-49.433-24.782 7.876-44.518-43.43-76.044-79.578-48.956-15.438-42.492-75.634-44.14-93.395-2.608-34.616-29.08-87.571-.41-82.186 44.439-20.201-3.548-41.359 5.583-52.21 24.377z" fill="#d1aee5"/><path d="m156.766 75.426c18.793-10.851 41.683-8.178 57.404 4.995 17.777-41.557 77.972-39.859 93.395 2.608 36.175-27.101 87.455 4.468 79.578 48.956 19.339-2.285 39.079 6.848 49.433 24.782 3.527 6.108 5.623 12.648 6.397 19.235h40.134c-.879-13.532-4.807-26.968-11.89-39.235-10.838-18.772-27.748-32.561-47.269-39.676-6.547-21.45-20.973-40.29-41.181-51.958-18.647-10.766-40.192-14.24-60.651-10.688-16.37-15.353-38.284-24.443-61.766-24.443-21.655 0-42.033 7.736-57.949 21.06-21.837-5.083-45.337-1.995-65.634 9.724-18.772 10.838-32.561 27.749-39.675 47.269-21.45 6.547-40.291 20.973-51.958 41.181-8.351 14.464-12.313 30.673-12.014 46.765h39.945c-1.517-31.551 28.544-57.008 58.92-51.142-2.286-19.338 6.847-39.079 24.781-49.433z" fill="#b278d3"/><path d="m438.938 336.001h-369.908c2.793 27.382 29.413 47.641 55.83 44.017-7.876 44.518 43.431 76.044 79.578 48.956 7.028 19.269 25.515 33.027 47.216 33.028 20.708 0 38.488-12.53 46.179-30.42 34.616 29.08 87.571.411 82.186-44.439 30.384 5.866 60.434-19.599 58.919-51.142z" fill="#d1aee5"/><path d="m297.832 431.581c-7.691 17.89-25.47 30.42-46.179 30.42-21.701 0-40.188-13.758-47.216-33.028-36.174 27.101-87.455-4.468-79.578-48.956-26.421 3.625-53.038-16.64-55.83-44.017h-40.134c.879 13.532 4.808 26.968 11.89 39.235 10.838 18.772 27.748 32.561 47.269 39.675 6.547 21.45 20.973 40.29 41.181 51.958 18.647 10.766 40.192 14.24 60.651 10.689 16.371 15.353 38.284 24.443 61.766 24.443 21.655 0 42.033-7.736 57.949-21.06 21.837 5.083 45.337 1.994 65.634-9.724 18.772-10.838 32.561-27.748 39.675-47.269 21.45-6.547 40.29-20.973 51.958-41.182 8.351-14.464 12.313-30.672 12.014-46.765h-39.945c1.516 31.551-28.544 57.007-58.92 51.141 5.383 44.88-47.596 73.505-82.185 44.44z" fill="#b278d3"/></g><g><path d="m273.559 226.001c13.268-.528 13.258-19.477 0-20h-35c-5.523 0-10 4.477-10 10v80c0 5.523 4.477 10 10 10h35c13.268-.528 13.258-19.477 0-20h-25v-20h11c13.268-.528 13.258-19.477 0-20h-11v-20z"/><path d="m335.145 248.963-10.634-4.404c-2.361-.978-4.208-2.836-5.2-5.231-.993-2.396-1-5.016-.021-7.378.978-2.361 2.835-4.208 5.23-5.2 2.396-.992 5.016-1 7.378-.022l5.317 2.202c5.103 2.115 10.952-.31 13.065-5.412 2.114-5.103-.31-10.952-5.412-13.065l-5.317-2.203c-14.552-6.388-32.969 1.24-38.739 16.047-6.389 14.552 1.239 32.968 16.046 38.741l10.634 4.404c4.916 2.036 7.258 7.693 5.222 12.609-.978 2.362-2.835 4.208-5.231 5.201s-5.015 1-7.378.022l-5.316-2.202c-5.1-2.113-10.951.31-13.065 5.412s.31 10.952 5.412 13.065l5.316 2.202c3.64 1.508 7.468 2.262 11.302 2.261 32.409-.55 41.138-44.081 11.391-57.049z"/><path d="m418.444 206.001c-5.523 0-10 4.477-10 10v30h-20.001v-30c-.528-13.268-19.477-13.258-20 0v80c.528 13.268 19.477 13.258 20 0v-30h20.001v30c.528 13.268 19.477 13.258 20 0v-80c0-5.523-4.477-10-10-10z"/><path d="m197.908 262.34c26.912-14.915 16.832-55.973-14.35-56.34h-20c-5.523 0-10 4.477-10 10v80c.528 13.268 19.477 13.258 20 0v-30h3.82l17.236 34.472c2.479 4.99 8.582 6.92 13.417 4.472 4.94-2.47 6.942-8.477 4.472-13.417zm-24.35-36.339h10c13.219.544 13.284 19.351.085 19.999-.086-.001-.172 0-.259.001h-9.826z"/><path d="m128.557 206.001h-35c-5.523 0-10 4.477-10 10v80c.528 13.268 19.477 13.258 20 0v-30h11c13.268-.528 13.258-19.477 0-20h-11v-20h25c13.268-.529 13.258-19.477 0-20z"/><path d="m472.24 256.001 38.661-75.439c1.589-3.1 1.45-6.804-.367-9.776-1.817-2.973-5.049-4.785-8.533-4.785h-9.963c-1.921-12.073-6-23.564-12.162-34.235-10.934-18.938-27.826-33.801-47.915-42.269-14.824-43.446-61.213-71.913-106.681-65.629-34.43-30.254-89.3-31.728-125.44-3.548-23.399-4.263-47.394-.136-68.075 11.805-18.938 10.934-33.8 27.826-42.267 47.915-22.422 8.038-41.127 23.587-53.026 44.196-7.355 12.74-11.804 27.056-13.024 41.766h-13.448c-3.483 0-6.716 1.812-8.533 4.785-1.816 2.972-1.956 6.676-.367 9.776l38.661 75.439-38.66 75.438c-1.589 3.1-1.45 6.804.367 9.776 1.817 2.973 5.049 4.785 8.533 4.785h9.963c5.099 33.619 28.678 63.529 60.077 76.503 14.824 43.446 61.211 71.912 106.681 65.63 34.433 30.252 89.301 31.728 125.44 3.547 23.401 4.265 47.393.136 68.075-11.805 18.938-10.934 33.801-27.826 42.268-47.915 36.488-12.667 63.216-47.432 66.05-85.961h13.447c3.483 0 6.716-1.812 8.533-4.785 1.816-2.972 1.956-6.676.367-9.776zm-418.447-121.766c10.174-17.622 26.587-30.625 46.217-36.617 3.003-.917 5.401-3.19 6.476-6.14 6.449-17.694 18.978-32.622 35.28-42.033 17.694-10.217 38.42-13.287 58.366-8.645 3.062.713 6.277-.056 8.687-2.072 29.953-25.888 78.032-24.605 106.455 3.01 2.291 2.149 5.458 3.098 8.551 2.559 18.589-3.229 37.746.146 53.941 9.496 17.622 10.174 30.626 26.587 36.617 46.216.917 3.003 3.19 5.401 6.14 6.477 25.903 9.248 45.969 32.54 51.199 59.516h-20.535c-1.357-4.96-3.35-9.73-5.951-14.235-10.04-17.39-27.852-28.387-47.363-29.942-.536-20.671-11.759-40.118-30.107-50.711-17.388-10.04-38.313-10.657-55.988-2.249-22.213-36.961-76.858-38.584-101.041-2.817-18.17-9.873-40.623-9.876-58.971.718-17.389 10.04-28.385 27.854-29.941 47.363-28.486.254-54.671 23.203-58.207 51.872h-20.086c1.16-11.195 4.655-22.056 10.261-31.766zm6.105 126.327c1.467-2.864 1.467-6.258 0-9.122l-33.536-65.439h184.636c13.268-.528 13.258-19.477 0-20h-127.084c.877-4.113 2.401-8.095 4.52-11.765 8.426-14.594 25.232-22.441 41.82-19.527 3.112.549 6.302-.41 8.599-2.582 2.297-2.171 3.433-5.301 3.062-8.44-1.891-16.002 5.901-31.546 19.851-39.6 14.593-8.425 33.071-6.818 45.981 4 2.422 2.03 5.662 2.793 8.738 2.064 3.075-.732 5.623-2.875 6.872-5.779 14.355-33.344 62.314-31.919 74.813 2.084 1.083 2.97 3.506 5.252 6.536 6.156 3.03.905 6.308.323 8.84-1.569 29.112-21.699 69.922 3.515 63.748 39.212-.547 3.114.411 6.302 2.582 8.6 2.172 2.297 5.304 3.428 8.44 3.062 15.997-1.889 31.546 5.902 39.6 19.851.795 1.377 1.505 2.791 2.128 4.235h-129.046c-13.268.528-13.258 19.477 0 20h184.642l-33.536 65.439c-1.467 2.864-1.467 6.258 0 9.122l33.536 65.439h-459.278zm310.189 127.754c4.238 36.06-38.003 58.797-65.832 35.6-2.423-2.03-5.665-2.795-8.738-2.063-3.075.731-5.623 2.875-6.872 5.778-14.36 33.348-62.312 31.918-74.813-2.084-1.083-2.97-3.507-5.252-6.536-6.156s-6.307-.322-8.84 1.569c-12.913 9.637-30.27 10.662-44.22 2.608-14.593-8.426-22.44-25.232-19.527-41.821.547-3.113-.411-6.302-2.582-8.599-2.172-2.297-5.301-3.429-8.44-3.062-17.565 2.173-34.807-7.808-41.728-24.085h346.129c-4.127 20.811-25.499 35.231-46.34 31.292-3.11-.548-6.302.41-8.599 2.582-2.298 2.171-3.433 5.301-3.062 8.441zm88.122-10.55c-10.174 17.622-26.588 30.626-46.217 36.617-3.003.917-5.401 3.19-6.477 6.14-6.449 17.694-18.978 32.622-35.28 42.033-17.695 10.217-38.424 13.287-58.367 8.645-3.06-.713-6.277.056-8.687 2.072-29.954 25.889-78.031 24.605-106.456-3.01-2.29-2.147-5.456-3.097-8.551-2.558-39.015 7.379-79.595-17.511-90.557-55.714-.917-3.002-3.19-5.401-6.141-6.476-17.694-6.449-32.622-18.978-42.033-35.28-4.39-7.604-7.46-15.727-9.165-24.235h20.534c6.367 24.222 28.718 42.519 53.314 44.176.758 43.116 47.268 71.842 86.096 52.959 22.215 36.961 76.857 38.583 101.041 2.816 18.168 9.871 40.621 9.875 58.971-.717 17.388-10.04 28.384-27.854 29.941-47.363 20.67-.536 40.118-11.758 50.711-30.106 3.876-6.714 6.422-14.134 7.496-21.765h20.086c-1.159 11.196-4.654 22.057-10.259 31.766z"/><path d="m256.001 186.001c13.268-.528 13.258-19.477 0-20h-.007c-13.268.53-13.25 19.479.007 20z"/></g></g></svg>